<svg width="649" height="163" viewBox="0 0 649 163" fill="none" xmlns="http://www.w3.org/2000/svg">
<path d="M181.887 126.304V131.092H166.36V126.304H181.887ZM170.242 152.569V123.824C170.242 122.057 170.607 120.586 171.337 119.412C172.078 118.238 173.069 117.36 174.312 116.779C175.555 116.197 176.934 115.907 178.45 115.907C179.522 115.907 180.474 115.992 181.306 116.163C182.138 116.334 182.754 116.488 183.153 116.625L181.922 121.413C181.659 121.333 181.329 121.253 180.93 121.174C180.531 121.082 180.086 121.037 179.596 121.037C178.445 121.037 177.629 121.316 177.151 121.875C176.683 122.422 176.45 123.208 176.45 124.234V152.569H170.242Z" fill="#79E2FF"/>
<path d="M196.723 153.082C194.158 153.082 191.935 152.518 190.054 151.39C188.173 150.261 186.714 148.682 185.677 146.653C184.651 144.624 184.138 142.252 184.138 139.539C184.138 136.826 184.651 134.449 185.677 132.408C186.714 130.368 188.173 128.783 190.054 127.655C191.935 126.526 194.158 125.962 196.723 125.962C199.288 125.962 201.511 126.526 203.392 127.655C205.273 128.783 206.727 130.368 207.753 132.408C208.79 134.449 209.309 136.826 209.309 139.539C209.309 142.252 208.79 144.624 207.753 146.653C206.727 148.682 205.273 150.261 203.392 151.39C201.511 152.518 199.288 153.082 196.723 153.082ZM196.758 148.123C198.148 148.123 199.311 147.742 200.246 146.978C201.181 146.203 201.876 145.165 202.332 143.865C202.8 142.566 203.033 141.118 203.033 139.522C203.033 137.915 202.8 136.461 202.332 135.161C201.876 133.85 201.181 132.807 200.246 132.032C199.311 131.257 198.148 130.869 196.758 130.869C195.333 130.869 194.147 131.257 193.201 132.032C192.266 132.807 191.565 133.85 191.097 135.161C190.641 136.461 190.413 137.915 190.413 139.522C190.413 141.118 190.641 142.566 191.097 143.865C191.565 145.165 192.266 146.203 193.201 146.978C194.147 147.742 195.333 148.123 196.758 148.123Z" fill="#79E2FF"/>
<path d="M214.082 152.569V126.304H220.084V130.681H220.357C220.836 129.165 221.657 127.997 222.82 127.176C223.994 126.344 225.333 125.927 226.838 125.927C227.18 125.927 227.562 125.945 227.984 125.979C228.417 126.002 228.776 126.041 229.061 126.098V131.793C228.799 131.702 228.383 131.622 227.813 131.553C227.254 131.474 226.713 131.434 226.188 131.434C225.06 131.434 224.045 131.679 223.145 132.169C222.255 132.648 221.554 133.315 221.041 134.17C220.528 135.025 220.272 136.011 220.272 137.128V152.569H214.082Z" fill="#79E2FF"/>
<path d="M255.612 153.082C253.047 153.082 250.824 152.518 248.943 151.39C247.062 150.261 245.603 148.682 244.566 146.653C243.54 144.624 243.027 142.252 243.027 139.539C243.027 136.826 243.54 134.449 244.566 132.408C245.603 130.368 247.062 128.783 248.943 127.655C250.824 126.526 253.047 125.962 255.612 125.962C258.177 125.962 260.4 126.526 262.281 127.655C264.162 128.783 265.616 130.368 266.642 132.408C267.679 134.449 268.198 136.826 268.198 139.539C268.198 142.252 267.679 144.624 266.642 146.653C265.616 148.682 264.162 150.261 262.281 151.39C260.4 152.518 258.177 153.082 255.612 153.082ZM255.647 148.123C257.037 148.123 258.2 147.742 259.135 146.978C260.07 146.203 260.765 145.165 261.221 143.865C261.689 142.566 261.922 141.118 261.922 139.522C261.922 137.915 261.689 136.461 261.221 135.161C260.765 133.85 260.07 132.807 259.135 132.032C258.2 131.257 257.037 130.869 255.647 130.869C254.222 130.869 253.036 131.257 252.09 132.032C251.155 132.807 250.454 133.85 249.986 135.161C249.53 136.461 249.302 137.915 249.302 139.522C249.302 141.118 249.53 142.566 249.986 143.865C250.454 145.165 251.155 146.203 252.09 146.978C253.036 147.742 254.222 148.123 255.647 148.123Z" fill="#79E2FF"/>
<path d="M272.971 152.569V126.304H278.973V130.681H279.246C279.725 129.165 280.546 127.997 281.709 127.176C282.883 126.344 284.223 125.927 285.727 125.927C286.069 125.927 286.451 125.945 286.873 125.979C287.306 126.002 287.665 126.041 287.95 126.098V131.793C287.688 131.702 287.272 131.622 286.702 131.553C286.143 131.474 285.602 131.434 285.078 131.434C283.949 131.434 282.934 131.679 282.034 132.169C281.145 132.648 280.443 133.315 279.93 134.17C279.417 135.025 279.161 136.011 279.161 137.128V152.569H272.971Z" fill="#79E2FF"/>
<path d="M301.923 162.966C299.7 162.966 297.79 162.664 296.194 162.06C294.598 161.467 293.316 160.669 292.347 159.666C291.378 158.663 290.705 157.551 290.329 156.332L295.903 154.981C296.154 155.494 296.519 156.001 296.998 156.503C297.477 157.016 298.121 157.437 298.93 157.768C299.751 158.11 300.783 158.281 302.025 158.281C303.781 158.281 305.234 157.853 306.386 156.998C307.537 156.155 308.113 154.764 308.113 152.826V147.85H307.805C307.486 148.488 307.019 149.144 306.403 149.816C305.799 150.489 304.995 151.053 303.992 151.509C303 151.965 301.752 152.193 300.247 152.193C298.229 152.193 296.399 151.72 294.758 150.774C293.128 149.816 291.828 148.391 290.859 146.499C289.901 144.595 289.423 142.212 289.423 139.351C289.423 136.467 289.901 134.033 290.859 132.049C291.828 130.054 293.133 128.544 294.775 127.518C296.417 126.48 298.246 125.962 300.264 125.962C301.803 125.962 303.068 126.224 304.06 126.748C305.063 127.261 305.861 127.883 306.454 128.612C307.047 129.33 307.497 130.009 307.805 130.647H308.147V126.304H314.252V152.997C314.252 155.243 313.716 157.101 312.645 158.572C311.573 160.042 310.108 161.142 308.25 161.872C306.392 162.602 304.283 162.966 301.923 162.966ZM301.974 147.337C303.285 147.337 304.402 147.018 305.326 146.379C306.249 145.741 306.95 144.823 307.429 143.626C307.908 142.429 308.147 140.993 308.147 139.317C308.147 137.664 307.908 136.216 307.429 134.973C306.962 133.731 306.266 132.767 305.343 132.083C304.431 131.388 303.308 131.04 301.974 131.04C300.595 131.04 299.443 131.399 298.52 132.118C297.596 132.836 296.901 133.822 296.434 135.076C295.966 136.319 295.732 137.732 295.732 139.317C295.732 140.924 295.966 142.332 296.434 143.541C296.912 144.738 297.614 145.672 298.537 146.345C299.472 147.006 300.617 147.337 301.974 147.337Z" fill="#79E2FF"/>
<path d="M327.673 153.1C326.008 153.1 324.509 152.803 323.176 152.21C321.853 151.606 320.804 150.717 320.029 149.543C319.265 148.369 318.883 146.921 318.883 145.199C318.883 143.717 319.157 142.492 319.704 141.523C320.251 140.554 320.998 139.779 321.944 139.197C322.891 138.616 323.956 138.177 325.142 137.88C326.339 137.573 327.576 137.35 328.853 137.214C330.392 137.054 331.64 136.911 332.598 136.786C333.555 136.649 334.251 136.444 334.684 136.17C335.129 135.885 335.351 135.446 335.351 134.854V134.751C335.351 133.463 334.969 132.465 334.205 131.759C333.441 131.052 332.341 130.698 330.905 130.698C329.389 130.698 328.186 131.029 327.297 131.69C326.419 132.351 325.826 133.132 325.518 134.033L319.738 133.212C320.194 131.616 320.947 130.282 321.996 129.211C323.044 128.128 324.327 127.318 325.843 126.782C327.359 126.235 329.035 125.962 330.871 125.962C332.136 125.962 333.396 126.11 334.65 126.406C335.904 126.703 337.049 127.193 338.087 127.877C339.124 128.549 339.956 129.467 340.583 130.63C341.222 131.793 341.541 133.246 341.541 134.99V152.569H335.59V148.961H335.385C335.009 149.691 334.479 150.375 333.795 151.013C333.122 151.64 332.273 152.148 331.247 152.535C330.232 152.911 329.041 153.1 327.673 153.1ZM329.28 148.551C330.523 148.551 331.6 148.306 332.512 147.816C333.424 147.314 334.125 146.653 334.616 145.832C335.117 145.011 335.368 144.116 335.368 143.147V140.052C335.174 140.212 334.844 140.36 334.376 140.497C333.92 140.634 333.407 140.753 332.837 140.856C332.267 140.958 331.703 141.05 331.144 141.129C330.586 141.209 330.101 141.278 329.691 141.335C328.767 141.46 327.941 141.665 327.211 141.95C326.482 142.235 325.906 142.634 325.484 143.147C325.062 143.649 324.851 144.299 324.851 145.097C324.851 146.237 325.267 147.097 326.1 147.679C326.932 148.26 327.992 148.551 329.28 148.551Z" fill="#79E2FF"/>
<path d="M353.474 137.179V152.569H347.284V126.304H353.201V130.767H353.509C354.113 129.296 355.076 128.128 356.398 127.261C357.732 126.395 359.38 125.962 361.34 125.962C363.153 125.962 364.732 126.349 366.077 127.124C367.434 127.9 368.483 129.023 369.224 130.493C369.976 131.964 370.346 133.748 370.335 135.846V152.569H364.145V136.803C364.145 135.047 363.689 133.674 362.777 132.682C361.876 131.69 360.628 131.194 359.032 131.194C357.949 131.194 356.986 131.434 356.142 131.912C355.31 132.38 354.654 133.058 354.175 133.947C353.708 134.837 353.474 135.914 353.474 137.179Z" fill="#79E2FF"/>
<path d="M376.146 152.569V126.304H382.337V152.569H376.146ZM379.259 122.576C378.278 122.576 377.435 122.251 376.728 121.601C376.021 120.94 375.668 120.148 375.668 119.224C375.668 118.289 376.021 117.497 376.728 116.847C377.435 116.186 378.278 115.855 379.259 115.855C380.25 115.855 381.094 116.186 381.789 116.847C382.496 117.497 382.85 118.289 382.85 119.224C382.85 120.148 382.496 120.94 381.789 121.601C381.094 122.251 380.25 122.576 379.259 122.576Z" fill="#79E2FF"/>
<path d="M408.98 133.246L403.337 133.862C403.178 133.292 402.898 132.756 402.499 132.254C402.112 131.753 401.587 131.348 400.926 131.04C400.265 130.733 399.455 130.579 398.498 130.579C397.21 130.579 396.127 130.858 395.249 131.417C394.382 131.975 393.955 132.699 393.966 133.588C393.955 134.352 394.234 134.973 394.804 135.452C395.386 135.931 396.343 136.324 397.677 136.632L402.157 137.59C404.643 138.126 406.489 138.975 407.698 140.138C408.918 141.3 409.533 142.822 409.545 144.703C409.533 146.356 409.049 147.816 408.091 149.081C407.145 150.335 405.828 151.315 404.141 152.022C402.454 152.729 400.516 153.082 398.327 153.082C395.112 153.082 392.524 152.41 390.563 151.065C388.603 149.708 387.434 147.821 387.058 145.404L393.094 144.823C393.368 146.009 393.949 146.904 394.838 147.508C395.728 148.112 396.885 148.414 398.31 148.414C399.78 148.414 400.96 148.112 401.849 147.508C402.75 146.904 403.2 146.157 403.2 145.268C403.2 144.515 402.91 143.894 402.328 143.404C401.758 142.914 400.869 142.537 399.661 142.275L395.18 141.335C392.661 140.81 390.797 139.927 389.589 138.684C388.38 137.43 387.782 135.846 387.793 133.93C387.782 132.311 388.221 130.909 389.11 129.724C390.01 128.527 391.259 127.603 392.855 126.953C394.462 126.292 396.315 125.962 398.412 125.962C401.49 125.962 403.913 126.617 405.68 127.928C407.458 129.239 408.558 131.012 408.98 133.246Z" fill="#79E2FF"/>
<path d="M425.796 153.082C423.162 153.082 420.888 152.535 418.973 151.441C417.069 150.335 415.604 148.773 414.578 146.755C413.552 144.726 413.039 142.338 413.039 139.59C413.039 136.889 413.552 134.517 414.578 132.477C415.615 130.425 417.063 128.829 418.921 127.689C420.779 126.537 422.963 125.962 425.471 125.962C427.089 125.962 428.617 126.224 430.053 126.748C431.501 127.261 432.778 128.059 433.884 129.142C435.001 130.225 435.879 131.605 436.517 133.28C437.156 134.945 437.475 136.929 437.475 139.231V141.129H415.946V136.957H431.541C431.53 135.771 431.273 134.717 430.772 133.793C430.27 132.859 429.569 132.123 428.668 131.588C427.779 131.052 426.742 130.784 425.556 130.784C424.291 130.784 423.179 131.092 422.222 131.707C421.264 132.311 420.517 133.109 419.981 134.101C419.457 135.082 419.189 136.159 419.178 137.333V140.976C419.178 142.503 419.457 143.814 420.016 144.909C420.574 145.992 421.355 146.824 422.358 147.405C423.362 147.975 424.536 148.26 425.881 148.26C426.782 148.26 427.597 148.135 428.326 147.884C429.056 147.622 429.689 147.24 430.224 146.738C430.76 146.237 431.165 145.615 431.439 144.874L437.218 145.524C436.854 147.052 436.158 148.386 435.132 149.526C434.118 150.654 432.818 151.532 431.233 152.159C429.649 152.775 427.836 153.082 425.796 153.082Z" fill="#79E2FF"/>
<path d="M442.23 152.569V126.304H448.232V130.681H448.506C448.985 129.165 449.806 127.997 450.969 127.176C452.143 126.344 453.482 125.927 454.987 125.927C455.329 125.927 455.711 125.945 456.133 125.979C456.566 126.002 456.925 126.041 457.21 126.098V131.793C456.948 131.702 456.532 131.622 455.962 131.553C455.403 131.474 454.862 131.434 454.337 131.434C453.209 131.434 452.194 131.679 451.293 132.169C450.404 132.648 449.703 133.315 449.19 134.17C448.677 135.025 448.421 136.011 448.421 137.128V152.569H442.23Z" fill="#79E2FF"/>
<path d="M481.601 133.246L475.958 133.862C475.798 133.292 475.519 132.756 475.12 132.254C474.732 131.753 474.208 131.348 473.547 131.04C472.885 130.733 472.076 130.579 471.118 130.579C469.83 130.579 468.747 130.858 467.869 131.417C467.003 131.975 466.575 132.699 466.587 133.588C466.575 134.352 466.855 134.973 467.425 135.452C468.006 135.931 468.964 136.324 470.298 136.632L474.778 137.59C477.263 138.126 479.11 138.975 480.318 140.138C481.538 141.3 482.154 142.822 482.165 144.703C482.154 146.356 481.669 147.816 480.712 149.081C479.765 150.335 478.449 151.315 476.761 152.022C475.074 152.729 473.136 153.082 470.947 153.082C467.732 153.082 465.145 152.41 463.184 151.065C461.223 149.708 460.055 147.821 459.678 145.404L465.715 144.823C465.988 146.009 466.57 146.904 467.459 147.508C468.348 148.112 469.505 148.414 470.93 148.414C472.401 148.414 473.581 148.112 474.47 147.508C475.371 146.904 475.821 146.157 475.821 145.268C475.821 144.515 475.53 143.894 474.949 143.404C474.379 142.914 473.49 142.537 472.281 142.275L467.801 141.335C465.281 140.81 463.418 139.927 462.209 138.684C461.001 137.43 460.402 135.846 460.414 133.93C460.402 132.311 460.841 130.909 461.73 129.724C462.631 128.527 463.879 127.603 465.475 126.953C467.083 126.292 468.935 125.962 471.033 125.962C474.111 125.962 476.533 126.617 478.3 127.928C480.079 129.239 481.179 131.012 481.601 133.246Z" fill="#79E2FF"/>
<path d="M67.0163 42.4484L58.1278 40.9554V66.5495C58.1278 67.7736 59.0278 68.8029 60.2432 68.9698L69.0668 70.1939V44.8594C69.0668 43.6725 68.2039 42.6524 67.0163 42.4484Z" fill="#79E2FF"/>
<path d="M93.3016 70.7506C93.3016 72.2343 91.9841 73.3749 90.4996 73.1709L69.0577 70.1942V89.1673C69.0577 90.3542 68.1948 91.3743 67.0072 91.5783L36.9736 96.6136C35.4706 96.864 34.1067 95.7234 34.1067 94.2026V39.8151C34.1067 38.3036 35.4706 37.1537 36.9736 37.4041L58.1094 40.9557V33.5743C58.1094 32.3502 59.0094 31.3209 60.2248 31.1539L90.481 26.9439C91.9563 26.7399 93.2831 27.8805 93.2831 29.3642V70.7506H93.2923H93.3016ZM117.889 0.283371H7.94214C3.56283 0.283371 0 3.82574 0 8.17489V116.477C0 121.206 4.13808 124.869 8.86068 124.322L118.807 111.646C122.816 111.182 125.84 107.806 125.84 103.8V8.17489C125.84 3.8072 122.277 0.283371 117.898 0.283371H117.889Z" fill="#79E2FF"/>
<path d="M337.528 16.8602C334.815 16.8602 332.505 17.6401 330.864 19.1218C329.216 20.6108 328.313 22.7469 328.313 25.3106C328.313 27.8803 329.244 30.0153 330.902 31.5012C332.552 32.9796 334.86 33.7609 337.528 33.7609C340.196 33.7609 342.504 32.9796 344.153 31.5012C345.812 30.0153 346.743 27.8803 346.743 25.3106C346.743 22.7469 345.84 20.6108 344.191 19.1218C342.551 17.6401 340.241 16.8602 337.528 16.8602Z" fill="#79E2FF"/>
<path d="M568.626 16.8602C565.913 16.8602 563.602 17.6401 561.962 19.1218C560.313 20.6108 559.411 22.7469 559.411 25.3106C559.411 27.8803 560.342 30.0153 562 31.5012C563.65 32.9796 565.958 33.7609 568.626 33.7609C571.294 33.7609 573.601 32.9796 575.251 31.5012C576.91 30.0153 577.841 27.8803 577.841 25.3106C577.841 22.7469 576.938 20.6108 575.289 19.1218C573.649 17.6401 571.339 16.8602 568.626 16.8602Z" fill="#79E2FF"/>
<path d="M235.778 21.2694H219.642V91.4055H235.778V21.2694Z" fill="#79E2FF"/>
<path d="M551.475 21.2694H535.338V91.4055H551.475V21.2694Z" fill="#79E2FF"/>
<path fill-rule="evenodd" clip-rule="evenodd" d="M189.606 23.2765H170.164V91.4055H187.065V70.0922H189.606C196.73 70.0922 202.542 67.8932 206.574 63.7998C210.604 59.7077 212.775 53.8024 212.775 46.541C212.775 39.3258 210.603 33.4902 206.57 29.4575C202.537 25.425 196.726 23.2765 189.606 23.2765ZM187.065 55.5809V37.7878H187.981C190.715 37.7878 192.697 38.5591 194.006 39.9837C195.324 41.419 196.065 43.6321 196.065 46.7321C196.065 49.8828 195.323 52.0665 194.011 53.4628C192.708 54.8508 190.727 55.5809 187.981 55.5809H187.065Z" fill="#79E2FF"/>
<path d="M312.039 27.8641H300.472L300.113 30.9785C299.739 34.2969 298.908 36.6102 297.53 38.3186C296.154 40.025 294.168 41.2082 291.326 42.1401L290.838 42.3001V52.5064H295.903V75.6914C295.903 81.2816 297.19 85.4162 299.869 88.1466C302.551 90.8801 306.499 92.0745 311.522 92.0745C314.841 92.0745 317.871 91.5864 320.516 90.8028L321.023 90.6525V74.882L320.024 75.3318C318.188 76.158 316.471 76.5119 315.154 76.5119C314.102 76.5119 313.358 76.2697 312.874 75.8025C312.394 75.3396 312.039 74.5313 312.039 73.1109V52.5064H321.501V38.1862H312.039V27.8641Z" fill="#79E2FF"/>
<path d="M639.048 27.8641H627.481L627.122 30.9785C626.748 34.2969 625.916 36.6102 624.539 38.3186C623.163 40.025 621.177 41.2082 618.335 42.1401L617.847 42.3001V52.5064H622.912V75.6914C622.912 81.2816 624.199 85.4162 626.878 88.1466C629.56 90.8801 633.508 92.0745 638.531 92.0745C641.85 92.0745 644.88 91.5864 647.525 90.8028L648.032 90.6525V74.882L647.033 75.3318C645.197 76.158 643.48 76.5119 642.162 76.5119C641.11 76.5119 640.367 76.2697 639.883 75.8025C639.403 75.3396 639.048 74.5313 639.048 73.1109V52.5064H648.51V38.1862H639.048V27.8641Z" fill="#79E2FF"/>
<path fill-rule="evenodd" clip-rule="evenodd" d="M263.251 37.4216C258.192 37.4216 253.04 38.3941 248.276 40.2412L247.824 40.4167V54.7119L248.872 54.1402C251.96 52.4558 256.047 50.9772 260.288 50.9772C263.242 50.9772 265.446 51.6932 266.901 52.9342C268.339 54.1611 269.137 55.9787 269.137 58.3923V58.7856C266.522 57.3289 263.449 56.5367 260.001 56.5367C255.061 56.5367 250.807 58.1949 247.788 61.2643C244.769 64.3337 243.045 68.7525 243.045 74.1622C243.045 79.5687 244.743 84.01 247.736 87.1037C250.731 90.1988 254.962 91.8833 259.906 91.8833C263.847 91.8833 267.447 90.8708 270.188 88.9377V91.4055H285.273V58.2967C285.273 51.609 283.292 46.3587 279.482 42.7863C275.678 39.2207 270.153 37.4216 263.251 37.4216ZM258.894 73.8755C258.894 72.0818 259.504 70.6413 260.472 69.6523C261.441 68.6629 262.807 68.0851 264.398 68.0851C265.986 68.0851 267.299 68.6605 268.217 69.641C269.139 70.6248 269.71 72.067 269.71 73.8755C269.71 75.7361 269.136 77.2023 268.215 78.1963C267.297 79.1864 265.986 79.7614 264.398 79.7614C261.281 79.7614 258.894 77.4311 258.894 73.8755Z" fill="#79E2FF"/>
<path d="M601.78 37.4216C596.553 37.4216 592.212 38.765 589.167 41.3929C586.107 44.0334 584.441 47.8983 584.441 52.7534C584.441 57.8391 586.254 62.121 590.663 66.5332L590.67 66.5395L594.577 70.6371L594.582 70.6432L594.588 70.6492C596.823 72.8844 597.535 73.9264 597.535 75.118C597.535 75.9761 597.235 76.5148 596.76 76.8651C596.249 77.2414 595.442 77.4676 594.325 77.4676C591.87 77.4676 589.247 76.3288 585.738 73.9572L584.632 73.2103V90.2518L585.117 90.4133C588.633 91.5853 592.436 92.1701 596.045 92.1701C601.613 92.1701 606.265 90.68 609.535 87.8128C612.816 84.9349 614.627 80.7384 614.627 75.5003C614.627 72.5791 614.055 70.0766 612.815 67.6728C611.583 65.2821 609.706 63.0221 607.147 60.5593L607.145 60.5577L602.568 56.0752L602.566 56.0733C600.944 54.4516 600.481 53.5846 600.481 52.7534C600.481 52.2035 600.694 51.7957 601.082 51.5044C601.494 51.1955 602.163 50.9772 603.118 50.9772C604.867 50.9772 607.138 51.6842 609.986 53.0133L610.995 53.484V38.6151L610.442 38.4904C607.443 37.8132 604.618 37.4216 601.78 37.4216Z" fill="#79E2FF"/>
<path d="M380.431 37.6128C375.906 37.6128 372.059 38.9704 369.001 41.6332V38.1862H354.586V91.4055H370.722V58.8702C370.722 56.8992 371.28 55.413 372.184 54.427C373.082 53.4474 374.387 52.8887 376.034 52.8887C377.734 52.8887 379.035 53.4499 379.917 54.424C380.808 55.4068 381.347 56.8918 381.347 58.8702V91.4055H397.483V55.2383C397.483 49.8807 395.809 45.4615 392.801 42.3784C389.792 39.2938 385.513 37.6128 380.431 37.6128Z" fill="#79E2FF"/>
<path d="M483.503 37.6128C479.147 37.6128 475.461 38.8188 472.361 41.604V38.1862H457.945V91.4055H474.081V58.8702C474.081 56.8771 474.58 55.3882 475.416 54.4084C476.24 53.4441 477.463 52.8887 479.107 52.8887C480.751 52.8887 481.973 53.4441 482.797 54.4084C483.634 55.3882 484.133 56.8772 484.133 58.8702V91.4055H500.269V58.8702C500.269 56.8846 500.787 55.3945 501.637 54.4116C502.476 53.4413 503.703 52.8887 505.294 52.8887C506.938 52.8887 508.161 53.4441 508.985 54.4084C509.822 55.3882 510.32 56.8771 510.32 58.8702V91.4055H526.361V55.2383C526.361 49.8401 524.739 45.4195 521.765 42.3447C518.789 39.2675 514.53 37.6128 509.404 37.6128C504.118 37.6128 499.684 39.4229 496.338 43.146C493.394 39.4917 488.942 37.6128 483.503 37.6128Z" fill="#79E2FF"/>
<path d="M345.596 38.1862H329.46V91.4055H345.596V38.1862Z" fill="#79E2FF"/>
<path d="M422.35 38.1862H406.214V74.2578C406.214 79.6037 407.785 84.0458 410.72 87.1569C413.66 90.2731 417.897 91.9789 423.075 91.9789C427.52 91.9789 431.371 90.6943 434.504 87.8898V91.4055H448.824V38.1862H432.688V70.7215C432.688 72.6482 432.152 74.1092 431.262 75.0813C430.378 76.0459 429.076 76.6074 427.376 76.6074C425.68 76.6074 424.459 76.0489 423.65 75.1002C422.827 74.1344 422.35 72.6708 422.35 70.7215V38.1862Z" fill="#79E2FF"/>
<path d="M576.694 38.1862H560.558V91.4055H576.694V38.1862Z" fill="#79E2FF"/>
</svg>
